# xmcd
#
# Track frame offsets:
#	150
#	16587
#	33558
#	53868
#	69550
#	85654
#	103102
#	122702
#	141128
#	157533
#	174421
#
# Disc length: 2703 seconds
#
# Revision: 1
# Processed by: cddbd v1.5.2PL0 Copyright (c) Steve Scherf et al.
# Submitted via: audiograbber 1.83.01
#
DISCID=800a8d0b
DTITLE=2Chely Wright - Lifted Off The Ground
DYEAR=2010
DGENRE=Country
TTITLE0=Broken 
TTITLE1=Heavenly Days
TTITLE2=Hang Out In Your Heart
TTITLE3=Notes To The Coroner 
TTITLE4=Snow Globe 
TTITLE5=Like Me
TTITLE6=That Train 
TTITLE7=Damn Liar
TTITLE8=Wish Me Away 
TTITLE9=Object Of Your Rejection
TTITLE10=Shadows Of Doubt 
EXTD=
EXTT0=
EXTT1=
EXTT2=
EXTT3=
EXTT4=
EXTT5=
EXTT6=
EXTT7=
EXTT8=
EXTT9=
EXTT10=
PLAYORDER=
